# Exported from Wings 3D 2.2.6.1
mtllib cube.mtl
o Cube1
#26 vertices, 48 faces
v -0.55555556 -0.55555556 -0.55555556
v -0.55555556 -0.55555556 0.55555556
v -0.55555556 0.55555556 -0.55555556
v -0.55555556 0.55555556 0.55555556
v 0.55555556 -0.55555556 -0.55555556
v 0.55555556 -0.55555556 0.55555556
v 0.55555556 0.55555556 -0.55555556
v 0.55555556 0.55555556 0.55555556
v -0.75000000 -0.75000000 0.0000000e+0
v -0.75000000 0.0000000e+0 -0.75000000
v 0.0000000e+0 -0.75000000 -0.75000000
v -0.75000000 0.0000000e+0 0.75000000
v 0.0000000e+0 -0.75000000 0.75000000
v -0.75000000 0.75000000 0.0000000e+0
v 0.0000000e+0 0.75000000 -0.75000000
v 0.0000000e+0 0.75000000 0.75000000
v 0.75000000 -0.75000000 0.0000000e+0
v 0.75000000 0.0000000e+0 -0.75000000
v 0.75000000 0.0000000e+0 0.75000000
v 0.75000000 0.75000000 0.0000000e+0
v 0.0000000e+0 1.00000000 0.0000000e+0
v 0.0000000e+0 -1.00000000 0.0000000e+0
v 0.0000000e+0 0.0000000e+0 1.00000000
v 0.0000000e+0 0.0000000e+0 -1.00000000
v 1.00000000 0.0000000e+0 0.0000000e+0
v -1.00000000 0.0000000e+0 0.0000000e+0
vn -0.57735027 -0.57735027 -0.57735027
vn -0.57735027 -0.57735027 0.57735027
vn -0.57735027 0.57735027 -0.57735027
vn -0.57735027 0.57735027 0.57735027
vn 0.57735027 -0.57735027 -0.57735027
vn 0.57735027 -0.57735027 0.57735027
vn 0.57735027 0.57735027 -0.57735027
vn 0.57735027 0.57735027 0.57735027
vn -0.70710678 -0.70710678 1.6968398e-17
vn -0.70710678 0.0000000e+0 -0.70710678
vn 0.0000000e+0 -0.70710678 -0.70710678
vn -0.70710678 0.0000000e+0 0.70710678
vn 0.0000000e+0 -0.70710678 0.70710678
vn -0.70710678 0.70710678 1.6968398e-17
vn 0.0000000e+0 0.70710678 -0.70710678
vn 0.0000000e+0 0.70710678 0.70710678
vn 0.70710678 -0.70710678 1.6968398e-17
vn 0.70710678 0.0000000e+0 -0.70710678
vn 0.70710678 0.0000000e+0 0.70710678
vn 0.70710678 0.70710678 1.6968398e-17
vn 0.0000000e+0 1.00000000 0.0000000e+0
vn 0.0000000e+0 -1.00000000 0.0000000e+0
vn 0.0000000e+0 7.9989795e-18 1.00000000
vn 0.0000000e+0 7.9989795e-18 -1.00000000
vn 1.00000000 7.9989795e-18 1.5997959e-17
vn -1.00000000 7.9989795e-18 7.9989795e-18
g Cube1
usemtl default
s off 
f 1//1 22//22 9//9
f 1//1 24//24 11//11
f 1//1 26//26 10//10
f 2//2 22//22 13//13
f 2//2 23//23 12//12
f 2//2 26//26 9//9
f 3//3 21//21 15//15
f 3//3 24//24 10//10
f 3//3 26//26 14//14
f 4//4 21//21 14//14
f 4//4 23//23 16//16
f 4//4 26//26 12//12
f 5//5 22//22 11//11
f 5//5 24//24 18//18
f 5//5 25//25 17//17
f 6//6 22//22 17//17
f 6//6 23//23 13//13
f 6//6 25//25 19//19
f 7//7 21//21 20//20
f 7//7 24//24 15//15
f 7//7 25//25 18//18
f 8//8 21//21 16//16
f 8//8 23//23 19//19
f 8//8 25//25 20//20
f 9//9 22//22 2//2
f 9//9 26//26 1//1
f 10//10 24//24 1//1
f 10//10 26//26 3//3
f 11//11 22//22 1//1
f 11//11 24//24 5//5
f 12//12 23//23 4//4
f 12//12 26//26 2//2
f 13//13 22//22 6//6
f 13//13 23//23 2//2
f 14//14 21//21 3//3
f 14//14 26//26 4//4
f 15//15 21//21 7//7
f 15//15 24//24 3//3
f 16//16 21//21 4//4
f 16//16 23//23 8//8
f 17//17 22//22 5//5
f 17//17 25//25 6//6
f 18//18 24//24 7//7
f 18//18 25//25 5//5
f 19//19 23//23 6//6
f 19//19 25//25 8//8
f 20//20 21//21 8//8
f 20//20 25//25 7//7
